<svg id="Camada_1" data-name="Camada 1" xmlns="http://www.w3.org/2000/svg" viewBox="0 0 1080 240"><defs><style>.cls-1{fill:#d5e4e0;}.cls-2{fill:#ff5000;}</style></defs><title>logo_white</title><path class="cls-1" d="M283,88.34A53.82,53.82,0,0,0,260,70.6q-14.2-5.92-34.25-5.92a128.57,128.57,0,0,0-26.19,2.81,185.66,185.66,0,0,0-28.2,8.44v26.54a119.66,119.66,0,0,1,27-11.39,100.71,100.71,0,0,1,27.41-3.9q21.2,0,30.86,8.73T266.37,124v4.18H230.74q-35,0-53.15,14t-18.1,41q0,23.37,14.71,37.28t39.38,13.92q18.46,0,31.37-6.85t21.42-21.27v23.94h26.69V138q0-21.21-2.31-31.81A44.81,44.81,0,0,0,283,88.34Zm-16.59,66.49q-.14,26.83-12.69,42T219.2,212.1q-15.57,0-24.37-8.08T186,181.38q0-16.15,11.75-24.31t35-8.15h33.61Z"/><path class="cls-1" d="M394.42,64.68q-16.59,0-28.7,7.14t-19.19,21V68.58H320V230.13h26.54V138.82q0-24.66,10-37.86t28.63-13.2q16.31,0,23.95,10.24t7.64,32V230.13h26.69V130q0-32.88-12.19-49.11T394.42,64.68Z"/><polygon class="cls-2" points="614.5 14.77 162.99 14.77 132.8 14.77 128.8 14.77 37.78 110.55 37.78 14.77 8.5 14.77 8.5 230.13 37.78 230.13 37.78 145.89 60 122.24 130.24 230.13 165.44 230.13 79.18 102.76 139.63 39.3 517.86 39.3 517.86 230.13 547.14 230.13 547.14 39.3 614.5 39.3 614.5 14.77"/><path class="cls-1" d="M737.65,88.34a53.82,53.82,0,0,0-23-17.74q-14.21-5.92-34.26-5.92a128.47,128.47,0,0,0-26.18,2.81A185.66,185.66,0,0,0,626,75.93v26.54a119.66,119.66,0,0,1,27-11.39,100.69,100.69,0,0,1,27.4-3.9q21.21,0,30.87,8.73T721.06,124v4.18H685.43q-35.05,0-53.15,14t-18.11,41q0,23.37,14.72,37.28t39.38,13.92q18.45,0,31.37-6.85t21.42-21.27v23.94h26.69V138q0-21.21-2.31-31.81A44.81,44.81,0,0,0,737.65,88.34Zm-16.59,66.49q-.15,26.83-12.69,42T673.89,212.1q-15.57,0-24.37-8.08t-8.8-22.64q0-16.15,11.75-24.31t35-8.15h33.61Z"/><path class="cls-1" d="M855,139.11l-10.68-2q-26.4-5-33-10.38t-6.64-16.16q0-12,8.87-17.81t26.91-5.84A84.72,84.72,0,0,1,864,90.21a101.13,101.13,0,0,1,22.93,10v-26a124.45,124.45,0,0,0-48.46-9.52q-29.15,0-44.86,12.62t-15.73,35.85q0,18.31,10.53,28.92t33.47,15.07l9.95,2,1.16.29Q868.3,166.52,868.3,185q0,12.84-9.67,20t-27.26,7.14a94.68,94.68,0,0,1-25.68-3.82,153.29,153.29,0,0,1-28.41-11.47v27.41a229.77,229.77,0,0,0,28.41,7.57,133.21,133.21,0,0,0,25.1,2.52q30.3,0,47.31-13.48t17-37.43q0-18-10.17-29.29T855,139.11Z"/><polygon class="cls-1" points="997.93 129.45 1061.55 68.58 1029.23 68.58 959.57 135.65 959.57 5.69 932.16 5.69 932.16 230.13 959.57 230.13 959.57 165.37 979.33 146.76 1039.04 230.13 1071.5 230.13 997.93 129.45"/></svg>