<svg id="Camada_1" data-name="Camada 1" xmlns="http://www.w3.org/2000/svg" viewBox="0 0 1080 1080"><defs><style>.cls-1{fill:#ff5000;}.cls-2{fill:#fff;}</style></defs><title>shortcut</title><path class="cls-1" d="M981.24,273.31A513.09,513.09,0,0,1,1055.5,540c0,284.7-230.8,515.5-515.5,515.5S24.5,824.7,24.5,540,255.3,24.5,540,24.5c151.86,0,288.39,65.67,382.72,170.16H637.07L345.16,501.84V194.66H251.25V885.34h93.91V615.17l71.24-75.86,225.29,346H754.57L477.93,476.86,671.8,273.31Z"/><path class="cls-2" d="M981.24,273.31H671.8L477.93,476.86,754.57,885.34H641.69l-225.29-346-71.24,75.86V885.34H251.25V194.66h93.91V501.84L637.07,194.66H922.72A516.57,516.57,0,0,1,981.24,273.31Z"/></svg>